<?xml version="1.0" encoding="utf-8"?><!-- Uploaded to: SVG Repo, www.svgrepo.com, Generator: SVG Repo Mixer Tools -->
<svg width="35px" height="30px" viewBox="0 0 24 24" fill="none" xmlns="http://www.w3.org/2000/svg">
<path d="M8.4 13.8C8.4 13.8 9.75 15.6 12 15.6C14.25 15.6 15.6 13.8 15.6 13.8M14.7 9.3H14.709M9.3 9.3H9.309M21 12C21 16.9706 16.9706 21 12 21C7.02944 21 3 16.9706 3 12C3 7.02944 7.02944 3 12 3C16.9706 3 21 7.02944 21 12ZM15.15 9.3C15.15 9.54853 14.9485 9.75 14.7 9.75C14.4515 9.75 14.25 9.54853 14.25 9.3C14.25 9.05147 14.4515 8.85 14.7 8.85C14.9485 8.85 15.15 9.05147 15.15 9.3ZM9.75 9.3C9.75 9.54853 9.54853 9.75 9.3 9.75C9.05147 9.75 8.85 9.54853 8.85 9.3C8.85 9.05147 9.05147 8.85 9.3 8.85C9.54853 8.85 9.75 9.05147 9.75 9.3Z" stroke="#FFFFFF" stroke-width="2" stroke-linecap="round" stroke-linejoin="round"/>
</svg>