<svg id="Calque_2" data-name="Calque 2" xmlns="http://www.w3.org/2000/svg" viewBox="0 0 1169.49 1239.31"><style>.colored {fill: #e31e43}</style><path d="M296.24,604.61c-.58-19.07,10.21-25.51,23.78-18.16,19.32,10.46,38.06,22,57.16,32.87,42.87,24.41,85.55,49.18,129,72.49,6.42,3.43,18.19,2.53,24.89-1.12,54-29.39,107.48-59.87,161-90.12q76.11-43,152.1-86.21c.78-.44,1.68-.65,2.49-1,8.52-4.21,17.44-9.8,24.73,1.33,4.9,7.48-.35,19.7-10.89,25.71-47.53,27.08-95.28,53.79-142.75,81C680.4,642.74,643.42,664.84,606,686.25,580.38,701,554.55,715.37,528.31,729c-5,2.57-13.47,3.07-18.2.53-33.19-17.83-65.83-36.67-98.61-55.26-33.14-18.79-66.36-37.46-99.27-56.65C305.44,613.64,299.86,607.61,296.24,604.61Z" class="colored"/><path d="M1141.69,810A649.39,649.39,0,0,1,1073.52,961c-45.57,73.26-95,118.93-113,134.89-82.74,73.2-163.56,103.2-184.11,110.47-51,18-91.25,23.45-123.92,27.86-44,5.93-112.14,5.55-246.72,4.54-33.14-.25-45.34-.76-76.64-.52-62.61.49-99.42.5-125.85.39-21.42-.09-42.85-.79-64.27-.38a137.14,137.14,0,0,1-26.28-1.49,129.86,129.86,0,0,1-36.41-11.5,125.67,125.67,0,0,1-46.39-39,118.05,118.05,0,0,1-15.34-30.39,176,176,0,0,1-6.89-21.49c-1.11-4.36-4.38-18.07-6.43-58.78-.46-9.1-.79-18.27-1-28-.5-23.15-.11-40.44,0-45.47.3-14.62,0-10.34,0-156.41,0-82.52,0-123.78.13-127.51C1.77,660.79,5.58,503,110.48,367.57,186,270,278.68,229.61,299.58,221c84.67-35.06,160.86-35.21,194-35,79.52.6,137.62,19,151.5,23.6a469.5,469.5,0,0,1,138.35,72.8c48.73,37.43,82.62,79.28,80.93,81.05-1.45,1.5-26.81-27.86-69.6-56.9-83-56.37-167.16-67.7-195-70.52a434.6,434.6,0,0,0-119.9,5c-6.15,1.11-63.41,11.78-117.1,38.64C273.89,324.11,168.43,426,140.18,574.14c-5.78,30.34-21.41,131.22,27.41,241.92,10.25,23.25,39.24,83,100.68,138.55,10.61,9.6,66.72,59.36,151.91,87.76a437.51,437.51,0,0,0,167.51,21.39A423.62,423.62,0,0,0,736.93,1025a431.07,431.07,0,0,0,115.83-80.19c53.36-51.56,79.6-103.34,87.32-119.39,6.15-12.78,28.58-61.13,37.87-133.21,5.24-40.66,29-225.11-94.19-382.86-14.1-18.05-69.58-86.32-168.7-134.81a499.36,499.36,0,0,0-202.5-50.31c-53.93-1.25-156,4-259.85,60-10.21,5.51-76.18,41.68-122.44,93.57-1.16,1.31-5.14,6.09-10.3,12.38-43.15,52.62-60.34,83.2-62.51,82-2.58-1.47,17-47.39,48.86-97.34C140.63,221,174.75,185.18,184,175.68,284.41,72.2,403.44,32,417.56,27.4,468.72,10.75,566.1-12.71,685.25,8.34c29.22,5.16,122.36,24.07,220.2,91.14,174.7,119.78,230.27,301.23,245.72,362.39C1157.83,488.22,1193.88,638.6,1141.69,810Z" class="colored"/></svg>