<?xml version="1.0" encoding="UTF-8"?>
<svg id="Calque_1" data-name="Calque 1" xmlns="http://www.w3.org/2000/svg" viewBox="0 0 317.35 399.16">
  <defs>
    <style>
      .cls-1 {
        fill: #e53265;
      }
    </style>
  </defs>
  <path class="cls-1" d="m316.92,184.13C312,97.63,249.86,23.6,165.45,4.59,125.63-4.27,83.19-.3,45.98,16.51c-10.48,4.7-20.87,10.61-30.3,17.19-1.27.95-3.86,2.73-5.13,3.69-1.23.99-3.75,2.88-4.97,3.89-.71.5-1.8,1.47-2.43,2.02-.89.95-2.1,1.8-2.56,3.09-.22.95-.29,1.96-.07,2.98.1.54.25.75.69,1.43.55.52.83.79,1.29.95.96.43,1.95.58,2.93.59,1.3-.16,2.36-1.05,3.44-1.7,1.6-1.18,3.29-2.26,4.93-3.39,1.16-.84,3.81-2.52,5.02-3.25,11.63-7.36,24.54-13.33,37.57-17.72,35.2-11.68,74.24-11.77,109.41.07,60.33,20.31,112.92,81.23,114.38,147.81,2.46,112.2-142.67,201.55-207.38,169.82-29.51-14.47-47.11-71.05-48.54-108.63-.38-9.94.25-23.02-1.23-50.11-.78-14.32-1.87-33.59-5.1-55.67C12.77,94.31,3.18,58.88.55,59.33c-2.16.37,2.5,27.5,5.41,73.36,3.51,55.17,1.9,97.49,1.16,124.87-1.36,50.18-4.46,82.24-5.76,94.88-.53,5.1-1,9.35-1.34,12.3.03,1.43.28,2.65.59,3.66,2.18,7.1,9.69,10.08,11.35,10.7,13.71,5.91,33.49,12.98,58.09,16.91,41.25,6.6,80.03,1.96,105.05-6,88.22-28.08,147.89-113.42,141.82-205.88Z"/>
  <path class="cls-1" d="m126.81,196.82c-1.77-.71-3.38-1.14-4.77-1.95-18.43-10.66-36.83-21.38-55.23-32.08-.72-.42-1.43-.86-2.11-1.34-2.45-1.73-3.73-3.87-2.06-6.8,1.88-3.3,4.62-2.82,7.29-1.3,6.22,3.53,12.35,7.2,18.53,10.79,11.78,6.85,23.53,13.75,35.41,20.43,1.27.72,3.66.72,4.92,0,29.49-16.82,58.89-33.79,88.32-50.73,1.59-.91,3.15-1.89,4.82-2.63,2.69-1.2,5.85-1.4,6.63,1.82.47,1.95-.76,5.53-2.39,6.56-8.15,5.15-16.7,9.64-25.06,14.47-23.18,13.4-46.33,26.86-69.5,40.27-1.54.89-3.16,1.63-4.82,2.48Z"/>
</svg>