<!DOCTYPE svg PUBLIC "-//W3C//DTD SVG 1.1//EN" "http://www.w3.org/Graphics/SVG/1.1/DTD/svg11.dtd">
<!-- Uploaded to: SVG Repo, www.svgrepo.com, Transformed by: SVG Repo Mixer Tools -->
<svg width="80px" height="80px" viewBox="0 0 24 24" fill="none" xmlns="http://www.w3.org/2000/svg">

<g id="SVGRepo_bgCarrier" stroke-width="0"/>

<g id="SVGRepo_tracerCarrier" stroke-linecap="round" stroke-linejoin="round"/>

<g id="SVGRepo_iconCarrier"> <path d="M7.9313 14.9999H16.0686C16.6744 14.9999 16.9773 14.9999 17.1175 14.8801C17.2393 14.7762 17.3038 14.6203 17.2913 14.4607C17.2768 14.2768 17.0626 14.0626 16.6342 13.6342L12.5656 9.56561C12.3676 9.3676 12.2686 9.2686 12.1544 9.2315C12.054 9.19887 11.9458 9.19887 11.8454 9.2315C11.7313 9.2686 11.6323 9.3676 11.4342 9.56561L7.36561 13.6342C6.93724 14.0626 6.72305 14.2768 6.70858 14.4607C6.69602 14.6203 6.76061 14.7762 6.88231 14.8801C7.02257 14.9999 7.32548 14.9999 7.9313 14.9999Z" stroke="#ffffff" stroke-width="2" stroke-linecap="round" stroke-linejoin="round"/> </g>

</svg>